<?xml version="1.0" encoding="UTF-8" standalone="no"?>
<!DOCTYPE svg PUBLIC "-//W3C//DTD SVG 1.1//EN" "http://www.w3.org/Graphics/SVG/1.1/DTD/svg11.dtd">
<svg width="100%" height="100%" viewBox="0 0 32 32" version="1.1" xmlns="http://www.w3.org/2000/svg" xmlns:xlink="http://www.w3.org/1999/xlink" xml:space="preserve" xmlns:serif="http://www.serif.com/" style="fill-rule:evenodd;clip-rule:evenodd;stroke-linejoin:round;stroke-miterlimit:2;">
    <g>
        <path d="M9.608,24.386L11.626,19.066C11.809,18.589 12.029,18.442 12.91,18.442L20.651,18.442L22.779,24.642C23.219,25.89 21.825,26.036 20.064,26.147C19.844,26.367 19.844,27.137 20.064,27.357C21.422,27.321 23.439,27.284 24.87,27.284C26.374,27.284 27.769,27.321 29.053,27.357C29.273,27.137 29.273,26.367 29.053,26.147C27.622,26 26.374,25.89 25.751,24.129L18.193,3.143C17.643,3.473 16.652,3.877 16.175,3.877L7.847,23.542C6.893,25.816 5.793,26.036 4.178,26.147C3.958,26.367 3.958,27.137 4.178,27.357C5.132,27.321 6.343,27.284 7.443,27.284C8.948,27.284 10.782,27.321 12.14,27.357C12.36,27.137 12.36,26.367 12.14,26.147C10.745,26.036 9.021,25.89 9.608,24.386ZM13.57,16.901C12.763,16.901 12.506,16.791 12.653,16.424L16.395,6.922L16.615,6.922L20.064,16.901L13.57,16.901Z" style="fill-rule:nonzero;"/>
    </g>
    <g>
        <path d="M25.289,6.034L24.434,6.034L19.495,29.345L20.35,29.345L25.289,6.034Z" style="fill-rule:nonzero;"/>
    </g>
</svg>
