<?xml version="1.0" encoding="UTF-8" standalone="no"?>
<!DOCTYPE svg PUBLIC "-//W3C//DTD SVG 1.1//EN" "http://www.w3.org/Graphics/SVG/1.1/DTD/svg11.dtd">
<svg width="100%" height="100%" viewBox="0 0 32 32" version="1.1" xmlns="http://www.w3.org/2000/svg" xmlns:xlink="http://www.w3.org/1999/xlink" xml:space="preserve" xmlns:serif="http://www.serif.com/" style="fill-rule:evenodd;clip-rule:evenodd;stroke-linejoin:round;stroke-miterlimit:2;">
    <g transform="matrix(1.56105,0,0,1.56105,-0.818908,-18.1617)">
        <g transform="matrix(36.6878,0,0,36.6878,2.64115,28.8745)">
            <path d="M0.328,-0.358C0.352,-0.367 0.363,-0.377 0.363,-0.381L0.363,-0.382C0.338,-0.41 0.304,-0.426 0.262,-0.426C0.24,-0.426 0.214,-0.422 0.193,-0.414C0.067,-0.369 0.03,-0.294 0.03,-0.177C0.03,-0.153 0.031,-0.129 0.035,-0.105C0.046,-0.033 0.1,0.018 0.171,0.018C0.225,0.018 0.276,0.001 0.321,-0.019C0.343,-0.029 0.411,-0.062 0.411,-0.075C0.411,-0.077 0.408,-0.078 0.403,-0.078C0.383,-0.079 0.343,-0.061 0.33,-0.051C0.297,-0.025 0.271,-0.017 0.24,-0.017C0.199,-0.017 0.162,-0.042 0.14,-0.08C0.118,-0.117 0.115,-0.159 0.115,-0.201C0.115,-0.285 0.133,-0.355 0.186,-0.391L0.192,-0.391C0.225,-0.391 0.257,-0.374 0.279,-0.349C0.28,-0.347 0.283,-0.347 0.286,-0.347C0.298,-0.347 0.323,-0.356 0.328,-0.358Z" style="fill:rgb(110,8,173);fill-rule:nonzero;"/>
        </g>
    </g>
</svg>
