<?xml version="1.0" encoding="UTF-8" standalone="no"?>
<!DOCTYPE svg PUBLIC "-//W3C//DTD SVG 1.1//EN" "http://www.w3.org/Graphics/SVG/1.1/DTD/svg11.dtd">
<svg width="100%" height="100%" viewBox="0 0 32 32" version="1.1" xmlns="http://www.w3.org/2000/svg" xmlns:xlink="http://www.w3.org/1999/xlink" xml:space="preserve" xmlns:serif="http://www.serif.com/" style="fill-rule:evenodd;clip-rule:evenodd;stroke-linejoin:round;stroke-miterlimit:2;">
    <g transform="matrix(2.01517,0,0,2.01517,-9.39695,-23.8684)">
        <g transform="matrix(36.6878,0,0,36.6878,2.64115,28.8745)">
            <path d="M0.226,-0.41L0.226,-0.302L0.148,-0.302C0.14,-0.302 0.12,-0.288 0.102,-0.272C0.084,-0.255 0.075,-0.242 0.083,-0.242L0.226,-0.242L0.226,-0.104C0.226,-0.099 0.245,-0.101 0.268,-0.109C0.292,-0.117 0.311,-0.128 0.311,-0.134L0.311,-0.242L0.389,-0.242C0.396,-0.242 0.417,-0.255 0.435,-0.272C0.453,-0.288 0.461,-0.302 0.454,-0.302L0.311,-0.302L0.311,-0.44C0.311,-0.445 0.292,-0.443 0.268,-0.434C0.245,-0.426 0.226,-0.415 0.226,-0.41Z" style="fill:rgb(110,8,173);fill-rule:nonzero;"/>
        </g>
    </g>
</svg>
