<?xml version="1.0" encoding="UTF-8" standalone="no"?>
<!DOCTYPE svg PUBLIC "-//W3C//DTD SVG 1.1//EN" "http://www.w3.org/Graphics/SVG/1.1/DTD/svg11.dtd">
<svg width="100%" height="100%" viewBox="0 0 32 32" version="1.1" xmlns="http://www.w3.org/2000/svg" xmlns:xlink="http://www.w3.org/1999/xlink" xml:space="preserve" xmlns:serif="http://www.serif.com/" style="fill-rule:evenodd;clip-rule:evenodd;stroke-linejoin:round;stroke-miterlimit:2;">
    <g transform="matrix(0.852227,0,0,0.818269,3.49653,4.83571)">
        <g transform="matrix(36.6878,0,0,36.6878,2.64115,28.8745)">
            <path d="M0.186,0.189L0.186,-0.729C0.186,-0.731 0.183,-0.732 0.179,-0.732C0.151,-0.732 0.1,-0.706 0.1,-0.699L0.1,0.219C0.1,0.221 0.103,0.222 0.107,0.222C0.133,0.222 0.186,0.198 0.186,0.189Z" style="fill:rgb(110,8,173);fill-rule:nonzero;"/>
        </g>
        <g transform="matrix(36.6878,0,0,36.6878,13.1339,28.8745)">
            <path d="M0.443,-0.017C0.423,-0.017 0.403,-0.032 0.403,-0.089L0.403,-0.532C0.403,-0.664 0.419,-0.8 0.438,-0.93C0.438,-0.932 0.435,-0.932 0.429,-0.932C0.416,-0.932 0.391,-0.928 0.378,-0.925C0.37,-0.923 0.318,-0.91 0.318,-0.901L0.318,-0.414C0.299,-0.423 0.28,-0.426 0.261,-0.426C0.153,-0.426 0.048,-0.348 0.035,-0.25C0.032,-0.225 0.03,-0.201 0.03,-0.176C0.03,-0.131 0.033,-0.086 0.055,-0.049C0.079,-0.008 0.123,0.018 0.173,0.018C0.218,0.018 0.28,-0.004 0.32,-0.034C0.323,-0.006 0.335,0.018 0.372,0.018C0.393,0.018 0.469,0.001 0.469,-0.016C0.469,-0.018 0.467,-0.019 0.462,-0.019C0.45,-0.017 0.446,-0.017 0.443,-0.017ZM0.318,-0.19C0.318,-0.115 0.296,-0.05 0.248,-0.019L0.239,-0.018C0.154,-0.018 0.115,-0.104 0.115,-0.206C0.115,-0.285 0.133,-0.357 0.186,-0.391L0.193,-0.391C0.234,-0.391 0.271,-0.367 0.294,-0.329C0.318,-0.288 0.318,-0.236 0.318,-0.19Z" style="fill:rgb(110,8,173);fill-rule:nonzero;"/>
        </g>
    </g>
</svg>
