<?xml version="1.0" encoding="UTF-8" standalone="no"?>
<!DOCTYPE svg PUBLIC "-//W3C//DTD SVG 1.1//EN" "http://www.w3.org/Graphics/SVG/1.1/DTD/svg11.dtd">
<svg width="100%" height="100%" viewBox="0 0 32 32" version="1.1" xmlns="http://www.w3.org/2000/svg" xmlns:xlink="http://www.w3.org/1999/xlink" xml:space="preserve" xmlns:serif="http://www.serif.com/" style="fill-rule:evenodd;clip-rule:evenodd;stroke-linejoin:round;stroke-miterlimit:2;">
    <g transform="matrix(1.61168,0,0,1.61168,-2.25349,-19.6884)">
        <g transform="matrix(36.6878,0,0,36.6878,2.64115,28.8745)">
            <path d="M0.478,-0.018C0.473,-0.017 0.468,-0.017 0.463,-0.017C0.409,-0.017 0.369,-0.049 0.337,-0.112L0.282,-0.219L0.336,-0.325C0.353,-0.359 0.371,-0.381 0.391,-0.394L0.392,-0.394C0.394,-0.394 0.396,-0.39 0.41,-0.39C0.43,-0.39 0.489,-0.411 0.489,-0.422C0.489,-0.426 0.47,-0.426 0.462,-0.426C0.387,-0.426 0.299,-0.392 0.252,-0.298L0.247,-0.289L0.228,-0.327C0.192,-0.398 0.15,-0.425 0.084,-0.426C0.07,-0.426 -0.009,-0.411 -0.009,-0.392C-0.009,-0.39 -0.007,-0.39 -0.004,-0.39L0.013,-0.39C0.071,-0.39 0.111,-0.359 0.143,-0.296L0.197,-0.19L0.143,-0.083C0.126,-0.049 0.108,-0.026 0.088,-0.013C0.087,-0.013 0.087,-0.012 0.087,-0.012C0.084,-0.012 0.083,-0.018 0.069,-0.018C0.051,-0.018 -0.009,0.004 -0.009,0.015C-0.009,0.018 0.009,0.018 0.017,0.018C0.091,0.018 0.18,-0.015 0.227,-0.11L0.232,-0.119L0.252,-0.081C0.286,-0.015 0.326,0.019 0.393,0.018C0.412,0.018 0.443,0.014 0.474,-0.003C0.484,-0.008 0.488,-0.012 0.488,-0.015C0.488,-0.017 0.485,-0.018 0.478,-0.018Z" style="fill:rgb(110,8,173);fill-rule:nonzero;"/>
        </g>
    </g>
</svg>
