<?xml version="1.0" encoding="UTF-8" standalone="no"?>
<!DOCTYPE svg PUBLIC "-//W3C//DTD SVG 1.1//EN" "http://www.w3.org/Graphics/SVG/1.1/DTD/svg11.dtd">
<svg width="100%" height="100%" viewBox="0 0 32 32" version="1.1" xmlns="http://www.w3.org/2000/svg" xmlns:xlink="http://www.w3.org/1999/xlink" xml:space="preserve" xmlns:serif="http://www.serif.com/" style="fill-rule:evenodd;clip-rule:evenodd;stroke-linejoin:round;stroke-miterlimit:2;">
    <path id="path55" d="M16,4C9.417,4 4,9.417 4,16C4,22.583 9.417,28 16,28C22.583,28 28,22.583 28,16C28,9.417 22.583,4 16,4ZM16,5C22.034,5 27,9.966 27,16C27,22.034 22.034,27 16,27C9.966,27 5,22.034 5,16C5,9.966 9.966,5 16,5ZM15,9L15,11L17,11L17,9L15,9ZM15,13L15,23L17,23L17,13L15,13Z" style="fill:rgb(253,5,5);fill-rule:nonzero;"/>
</svg>
