<?xml version="1.0" encoding="UTF-8" standalone="no"?>
<!DOCTYPE svg PUBLIC "-//W3C//DTD SVG 1.1//EN" "http://www.w3.org/Graphics/SVG/1.1/DTD/svg11.dtd">
<svg width="100%" height="100%" viewBox="0 0 32 32" version="1.1" xmlns="http://www.w3.org/2000/svg" xmlns:xlink="http://www.w3.org/1999/xlink" xml:space="preserve" xmlns:serif="http://www.serif.com/" style="fill-rule:evenodd;clip-rule:evenodd;stroke-linejoin:round;stroke-miterlimit:2;">
    <g transform="matrix(1.13525,0,0,1.13525,-2.94774,-10.4256)">
        <g transform="matrix(36.6878,0,0,36.6878,2.64115,28.8745)">
            <path d="M0.421,-0.28C0.421,-0.335 0.46,-0.39 0.478,-0.391L0.486,-0.391C0.543,-0.391 0.593,-0.345 0.599,-0.284L0.599,-0.06C0.598,0.006 0.624,0.018 0.652,0.018C0.679,0.018 0.751,-0.001 0.751,-0.017C0.751,-0.019 0.748,-0.02 0.725,-0.018C0.691,-0.018 0.685,-0.059 0.685,-0.09L0.684,-0.314C0.678,-0.378 0.627,-0.426 0.557,-0.426L0.542,-0.426C0.486,-0.421 0.436,-0.401 0.4,-0.372C0.375,-0.406 0.341,-0.426 0.293,-0.426C0.246,-0.426 0.188,-0.408 0.144,-0.377C0.135,-0.401 0.118,-0.426 0.09,-0.426C0.068,-0.426 0.005,-0.407 0.005,-0.393C0.005,-0.388 0.017,-0.391 0.019,-0.391C0.046,-0.391 0.071,-0.335 0.071,-0.273L0.071,0.015C0.071,0.017 0.074,0.018 0.078,0.018C0.104,0.018 0.157,-0.006 0.157,-0.015L0.157,-0.28C0.157,-0.327 0.18,-0.369 0.214,-0.391L0.221,-0.391C0.285,-0.391 0.335,-0.336 0.335,-0.273L0.335,0.015C0.335,0.017 0.338,0.018 0.342,0.018C0.368,0.018 0.421,-0.006 0.421,-0.015L0.421,-0.28Z" style="fill:rgb(110,8,173);fill-rule:nonzero;"/>
        </g>
    </g>
</svg>
