<?xml version="1.0" encoding="UTF-8" standalone="no"?>
<!DOCTYPE svg PUBLIC "-//W3C//DTD SVG 1.1//EN" "http://www.w3.org/Graphics/SVG/1.1/DTD/svg11.dtd">
<svg width="100%" height="100%" viewBox="0 0 32 32" version="1.1" xmlns="http://www.w3.org/2000/svg" xmlns:xlink="http://www.w3.org/1999/xlink" xml:space="preserve" xmlns:serif="http://www.serif.com/" style="fill-rule:evenodd;clip-rule:evenodd;stroke-linejoin:round;stroke-miterlimit:2;">
    <g transform="matrix(1.61168,0,0,1.61168,-4.29348,-19.5869)">
        <g transform="matrix(36.6878,0,0,36.6878,2.64115,28.8745)">
            <path d="M0.071,0.015C0.071,0.017 0.073,0.018 0.078,0.018C0.101,0.018 0.156,-0.005 0.156,-0.015L0.156,-0.28C0.156,-0.33 0.195,-0.389 0.213,-0.391L0.221,-0.391C0.285,-0.391 0.335,-0.336 0.335,-0.273L0.335,-0.06C0.335,0.003 0.357,0.018 0.388,0.018C0.412,0.018 0.486,-0 0.486,-0.017C0.486,-0.019 0.483,-0.02 0.459,-0.018C0.439,-0.018 0.42,-0.034 0.42,-0.09L0.42,-0.314C0.414,-0.378 0.361,-0.426 0.293,-0.426L0.278,-0.426C0.225,-0.421 0.179,-0.404 0.143,-0.378C0.133,-0.409 0.112,-0.426 0.089,-0.426C0.069,-0.426 0.005,-0.407 0.005,-0.393C0.005,-0.388 0.016,-0.391 0.018,-0.391C0.045,-0.391 0.071,-0.333 0.071,-0.273L0.071,0.015Z" style="fill:rgb(110,8,173);fill-rule:nonzero;"/>
        </g>
    </g>
</svg>
