<?xml version="1.0" encoding="UTF-8" standalone="no"?>
<!DOCTYPE svg PUBLIC "-//W3C//DTD SVG 1.1//EN" "http://www.w3.org/Graphics/SVG/1.1/DTD/svg11.dtd">
<svg width="100%" height="100%" viewBox="0 0 32 32" version="1.1" xmlns="http://www.w3.org/2000/svg" xmlns:xlink="http://www.w3.org/1999/xlink" xml:space="preserve" xmlns:serif="http://www.serif.com/" style="fill-rule:evenodd;clip-rule:evenodd;stroke-linejoin:round;stroke-miterlimit:2;">
    <path d="M9.575,24.399L9.575,18.199C12.657,18.199 13.354,18.749 13.868,19.593L17.793,25.977C18.857,27.701 20.435,29.242 22.636,29.242C23.186,29.242 23.81,29.169 24.177,28.985C24.324,28.728 24.287,28.398 24.14,28.105C22.489,28.105 21.572,26.857 20.618,25.28L15.995,17.575C17.573,17.061 20.875,15.154 20.875,11.301C20.875,9.467 20.251,7.963 18.93,6.715C17.169,5.064 14.895,4.954 12.583,4.954C10.859,4.954 9.318,5.211 7.997,5.211C6.713,5.211 4.989,5.175 3.265,5.138C3.045,5.358 3.045,6.128 3.265,6.349C5.833,6.459 6.457,6.642 6.457,9.687L6.457,24.399C6.457,27.444 5.833,27.628 3.265,27.738C3.045,27.958 3.045,28.728 3.265,28.948C4.916,28.912 6.64,28.875 8.034,28.875C9.428,28.875 11.153,28.912 12.767,28.948C12.987,28.728 12.987,27.958 12.767,27.738C10.199,27.628 9.575,27.444 9.575,24.399ZM12.62,6.202C14.858,6.202 17.5,7.009 17.5,11.338C17.5,15.924 14.895,16.951 11.336,16.951L9.575,16.951L9.575,8.55C9.575,7.486 10.015,6.202 12.62,6.202Z" style="fill-rule:nonzero;"/>
    <g>
        <path d="M24.003,15.911L23.149,15.911L18.211,30.598L19.065,30.598L24.003,15.911Z" style="fill-rule:nonzero;"/>
    </g>
</svg>
