<?xml version="1.0" encoding="UTF-8" standalone="no"?>
<!DOCTYPE svg PUBLIC "-//W3C//DTD SVG 1.1//EN" "http://www.w3.org/Graphics/SVG/1.1/DTD/svg11.dtd">
<svg width="100%" height="100%" viewBox="0 0 32 32" version="1.1" xmlns="http://www.w3.org/2000/svg" xmlns:xlink="http://www.w3.org/1999/xlink" xml:space="preserve" xmlns:serif="http://www.serif.com/" style="fill-rule:evenodd;clip-rule:evenodd;stroke-linejoin:round;stroke-miterlimit:2;">
    <g transform="matrix(1.56105,0,0,1.56105,-0.818908,-18.1617)">
        <g transform="matrix(36.6878,0,0,36.6878,2.64115,28.8745)">
            <path d="M0.191,-0.413L0.039,-0.413C0.019,-0.413 -0.04,-0.392 -0.04,-0.381C-0.04,-0.379 -0.038,-0.378 -0.033,-0.378L0.159,-0.378C0.158,-0.305 0.143,-0.215 0.143,-0.141C0.143,-0.048 0.167,0.018 0.267,0.018C0.287,0.018 0.318,0.015 0.35,-0.003C0.36,-0.008 0.365,-0.012 0.365,-0.015C0.365,-0.017 0.361,-0.018 0.354,-0.018C0.348,-0.017 0.342,-0.017 0.336,-0.017C0.249,-0.017 0.229,-0.082 0.229,-0.172C0.229,-0.236 0.24,-0.315 0.243,-0.378L0.363,-0.378C0.382,-0.378 0.442,-0.401 0.442,-0.41C0.442,-0.412 0.44,-0.413 0.435,-0.413L0.244,-0.413L0.244,-0.423C0.244,-0.425 0.242,-0.426 0.237,-0.426C0.229,-0.426 0.207,-0.421 0.191,-0.413Z" style="fill:rgb(110,8,173);fill-rule:nonzero;"/>
        </g>
    </g>
</svg>
