<?xml version="1.0" encoding="UTF-8" standalone="no"?>
<!DOCTYPE svg PUBLIC "-//W3C//DTD SVG 1.1//EN" "http://www.w3.org/Graphics/SVG/1.1/DTD/svg11.dtd">
<svg width="100%" height="100%" viewBox="0 0 16 16" version="1.1" xmlns="http://www.w3.org/2000/svg" xmlns:xlink="http://www.w3.org/1999/xlink" xml:space="preserve" xmlns:serif="http://www.serif.com/" style="fill-rule:evenodd;clip-rule:evenodd;stroke-linejoin:round;stroke-miterlimit:2;">
    <path d="M8,2L7.293,2.699L7.297,2.703L2,7.998L2,9L3.008,9L3.008,13L3,13L3,14L13,14L13,9L14,9L14,7.998L12.857,6.855L12.156,7.557L12.6,8L12,8L12,13L9,13L9,10L7,10L7,13L4,13L4,8L3.4,8L7.998,3.404L8,3.406L8.002,3.404L9.443,4.844L10.145,4.143L8.703,2.703L8.707,2.699L8,2ZM11,3L11,6L12.008,6L12.008,3L11,3Z" style="fill:rgb(255,208,99);fill-rule:nonzero;"/>
</svg>
