<?xml version="1.0" encoding="UTF-8" standalone="no"?>
<!DOCTYPE svg PUBLIC "-//W3C//DTD SVG 1.1//EN" "http://www.w3.org/Graphics/SVG/1.1/DTD/svg11.dtd">
<svg width="100%" height="100%" viewBox="0 0 16 16" version="1.1" xmlns="http://www.w3.org/2000/svg" xmlns:xlink="http://www.w3.org/1999/xlink" xml:space="preserve" xmlns:serif="http://www.serif.com/" style="fill-rule:evenodd;clip-rule:evenodd;stroke-linejoin:round;stroke-miterlimit:2;">
    <path d="M5,4C4.451,4 4,4.451 4,5C3.998,5.266 4.103,5.521 4.29,5.71L6.59,8L4.29,10.29C4.103,10.479 3.998,10.734 4,11C4,11.549 4.451,12 5,12C5.266,12.002 5.521,11.897 5.71,11.71L8,9.41L10.28,11.7C10.469,11.893 10.729,12.002 11,12C11.549,12 12,11.549 12,11C12.002,10.734 11.897,10.479 11.71,10.29L9.41,8L11.7,5.72C11.893,5.531 12.002,5.271 12,5C12,4.451 11.549,4 11,4C10.734,3.998 10.479,4.103 10.29,4.29L8,6.59L5.72,4.3C5.717,4.297 5.713,4.293 5.71,4.29C5.521,4.103 5.266,3.998 5,4Z" style="fill:rgb(255,57,26);fill-rule:nonzero;"/>
</svg>
