<?xml version="1.0" encoding="UTF-8" standalone="no"?>
<!DOCTYPE svg PUBLIC "-//W3C//DTD SVG 1.1//EN" "http://www.w3.org/Graphics/SVG/1.1/DTD/svg11.dtd">
<svg width="100%" height="100%" viewBox="0 0 16 16" version="1.1" xmlns="http://www.w3.org/2000/svg" xmlns:xlink="http://www.w3.org/1999/xlink" xml:space="preserve" xmlns:serif="http://www.serif.com/" style="fill-rule:evenodd;clip-rule:evenodd;stroke-linejoin:round;stroke-miterlimit:2;">
    <path d="M1,14.5L1,6.5C1,6 1.52,6 1.52,6L5,6L5,9L3,9L3,13L9,13L9,11L11,11L11,14.5C11,14.98 10.5,15 10.5,15L1.5,15C1.5,15 1,15 1,14.5Z" style="fill:rgb(68,68,68);fill-rule:nonzero;"/>
    <path d="M6.5,1C6,1 6,1.5 6,1.5L6,9.5C6,10 6.5,10 6.5,10L15.5,10C15.5,10 16,10 16,9.5L16,1.5C16,1 15.5,1 15.5,1L6.5,1ZM8,4L14,4L14,8L8,8L8,4Z" style="fill:rgb(0,160,228);fill-rule:nonzero;"/>
</svg>
